<svg xmlns="http://www.w3.org/2000/svg" xmlns:xlink="http://www.w3.org/1999/xlink" width="500" zoomAndPan="magnify" viewBox="0 0 375 374.999991" height="500" preserveAspectRatio="xMidYMid meet" version="1.0"><defs><g/><clipPath id="a58e925652"><path d="M 112.011719 112.003906 L 262.761719 112.003906 L 262.761719 139.753906 L 112.011719 139.753906 Z M 112.011719 112.003906 " clip-rule="nonzero"/></clipPath><clipPath id="15c9412d1e"><path d="M 112.011719 144.898438 L 262.761719 144.898438 L 262.761719 161.398438 L 112.011719 161.398438 Z M 112.011719 144.898438 " clip-rule="nonzero"/></clipPath><clipPath id="f210bf2a58"><path d="M 112.011719 166.898438 L 262.761719 166.898438 L 262.761719 185.648438 L 112.011719 185.648438 Z M 112.011719 166.898438 " clip-rule="nonzero"/></clipPath></defs><g clip-path="url(#a58e925652)"><path fill="#ff914d" d="M 263.042969 187.519531 C 263.042969 188.753906 263.011719 189.988281 262.953125 191.222656 C 262.890625 192.457031 262.800781 193.691406 262.679688 194.921875 C 262.558594 196.152344 262.40625 197.378906 262.226562 198.597656 C 262.046875 199.820312 261.832031 201.039062 261.59375 202.25 C 261.351562 203.464844 261.082031 204.667969 260.78125 205.867188 C 260.480469 207.066406 260.152344 208.257812 259.792969 209.441406 C 259.433594 210.621094 259.046875 211.796875 258.628906 212.960938 C 258.214844 214.125 257.769531 215.277344 257.296875 216.417969 C 256.824219 217.558594 256.320312 218.6875 255.792969 219.804688 C 255.265625 220.921875 254.710938 222.027344 254.125 223.117188 C 253.542969 224.207031 252.933594 225.28125 252.300781 226.34375 C 251.664062 227.402344 251.003906 228.445312 250.316406 229.472656 C 249.628906 230.5 248.917969 231.511719 248.183594 232.503906 C 247.445312 233.496094 246.6875 234.46875 245.902344 235.425781 C 245.117188 236.382812 244.3125 237.316406 243.480469 238.230469 C 242.652344 239.148438 241.800781 240.042969 240.925781 240.917969 C 240.050781 241.789062 239.15625 242.640625 238.242188 243.472656 C 237.324219 244.300781 236.390625 245.109375 235.433594 245.894531 C 234.480469 246.675781 233.503906 247.4375 232.511719 248.171875 C 231.519531 248.910156 230.511719 249.621094 229.480469 250.308594 C 228.453125 250.996094 227.410156 251.65625 226.351562 252.289062 C 225.289062 252.925781 224.214844 253.535156 223.125 254.117188 C 222.035156 254.699219 220.933594 255.257812 219.816406 255.785156 C 218.699219 256.3125 217.570312 256.8125 216.425781 257.285156 C 215.285156 257.757812 214.132812 258.203125 212.96875 258.621094 C 211.804688 259.035156 210.632812 259.425781 209.449219 259.78125 C 208.265625 260.140625 207.074219 260.472656 205.875 260.773438 C 204.679688 261.070312 203.472656 261.34375 202.261719 261.582031 C 201.046875 261.824219 199.832031 262.035156 198.609375 262.21875 C 197.386719 262.398438 196.160156 262.550781 194.929688 262.671875 C 193.699219 262.792969 192.46875 262.882812 191.234375 262.945312 C 190 263.003906 188.765625 263.035156 187.527344 263.035156 C 186.292969 263.035156 185.058594 263.003906 183.824219 262.945312 C 182.589844 262.882812 181.355469 262.792969 180.125 262.671875 C 178.894531 262.550781 177.671875 262.398438 176.449219 262.21875 C 175.226562 262.035156 174.007812 261.824219 172.796875 261.582031 C 171.582031 261.34375 170.378906 261.070312 169.179688 260.773438 C 167.980469 260.472656 166.789062 260.140625 165.605469 259.78125 C 164.425781 259.425781 163.25 259.035156 162.085938 258.621094 C 160.925781 258.203125 159.769531 257.757812 158.628906 257.285156 C 157.488281 256.8125 156.359375 256.3125 155.242188 255.785156 C 154.125 255.257812 153.019531 254.699219 151.929688 254.117188 C 150.839844 253.535156 149.765625 252.925781 148.707031 252.289062 C 147.644531 251.65625 146.601562 250.996094 145.574219 250.308594 C 144.546875 249.621094 143.535156 248.910156 142.542969 248.171875 C 141.550781 247.4375 140.578125 246.675781 139.621094 245.894531 C 138.667969 245.109375 137.730469 244.300781 136.816406 243.472656 C 135.898438 242.640625 135.003906 241.789062 134.128906 240.917969 C 133.257812 240.042969 132.40625 239.148438 131.574219 238.230469 C 130.746094 237.316406 129.9375 236.382812 129.152344 235.425781 C 128.371094 234.46875 127.609375 233.496094 126.875 232.503906 C 126.136719 231.511719 125.425781 230.5 124.738281 229.472656 C 124.050781 228.445312 123.390625 227.402344 122.757812 226.34375 C 122.121094 225.28125 121.511719 224.207031 120.929688 223.117188 C 120.347656 222.027344 119.792969 220.921875 119.261719 219.804688 C 118.734375 218.6875 118.234375 217.558594 117.761719 216.417969 C 117.289062 215.277344 116.84375 214.125 116.425781 212.960938 C 116.011719 211.796875 115.621094 210.621094 115.265625 209.441406 C 114.90625 208.257812 114.574219 207.066406 114.277344 205.867188 C 113.976562 204.667969 113.703125 203.464844 113.464844 202.25 C 113.222656 201.039062 113.011719 199.820312 112.828125 198.597656 C 112.648438 197.378906 112.496094 196.152344 112.375 194.921875 C 112.253906 193.691406 112.164062 192.457031 112.101562 191.222656 C 112.042969 189.988281 112.011719 188.753906 112.011719 187.519531 C 112.011719 186.28125 112.042969 185.046875 112.101562 183.8125 C 112.164062 182.578125 112.253906 181.347656 112.375 180.117188 C 112.496094 178.886719 112.648438 177.660156 112.828125 176.4375 C 113.011719 175.214844 113.222656 174 113.464844 172.785156 C 113.703125 171.574219 113.976562 170.367188 114.277344 169.171875 C 114.574219 167.972656 114.90625 166.78125 115.265625 165.597656 C 115.621094 164.414062 116.011719 163.242188 116.425781 162.078125 C 116.84375 160.914062 117.289062 159.761719 117.761719 158.621094 C 118.234375 157.480469 118.734375 156.347656 119.261719 155.230469 C 119.792969 154.113281 120.347656 153.011719 120.929688 151.921875 C 121.511719 150.832031 122.121094 149.757812 122.757812 148.695312 C 123.390625 147.636719 124.050781 146.59375 124.738281 145.566406 C 125.425781 144.539062 126.136719 143.527344 126.875 142.535156 C 127.609375 141.542969 128.371094 140.566406 129.152344 139.613281 C 129.9375 138.65625 130.746094 137.722656 131.574219 136.804688 C 132.40625 135.890625 133.257812 134.996094 134.128906 134.121094 C 135.003906 133.246094 135.898438 132.394531 136.816406 131.566406 C 137.730469 130.734375 138.667969 129.929688 139.621094 129.144531 C 140.578125 128.359375 141.550781 127.601562 142.542969 126.863281 C 143.535156 126.128906 144.546875 125.417969 145.574219 124.730469 C 146.601562 124.042969 147.644531 123.382812 148.707031 122.746094 C 149.765625 122.113281 150.839844 121.503906 151.929688 120.921875 C 153.019531 120.335938 154.125 119.78125 155.242188 119.253906 C 156.359375 118.726562 157.488281 118.226562 158.628906 117.75 C 159.769531 117.277344 160.925781 116.835938 162.085938 116.417969 C 163.25 116 164.425781 115.613281 165.605469 115.253906 C 166.789062 114.894531 167.980469 114.566406 169.179688 114.265625 C 170.378906 113.964844 171.582031 113.695312 172.796875 113.453125 C 174.007812 113.214844 175.226562 113.003906 176.449219 112.820312 C 177.671875 112.640625 178.894531 112.488281 180.125 112.367188 C 181.355469 112.246094 182.589844 112.15625 183.824219 112.09375 C 185.058594 112.035156 186.292969 112.003906 187.527344 112.003906 C 188.765625 112.003906 190 112.035156 191.234375 112.09375 C 192.46875 112.15625 193.699219 112.246094 194.929688 112.367188 C 196.160156 112.488281 197.386719 112.640625 198.609375 112.820312 C 199.832031 113.003906 201.046875 113.214844 202.261719 113.453125 C 203.472656 113.695312 204.679688 113.964844 205.875 114.265625 C 207.074219 114.566406 208.265625 114.894531 209.449219 115.253906 C 210.632812 115.613281 211.804688 116 212.96875 116.417969 C 214.132812 116.835938 215.285156 117.277344 216.425781 117.75 C 217.570312 118.226562 218.699219 118.726562 219.816406 119.253906 C 220.933594 119.78125 222.035156 120.335938 223.125 120.921875 C 224.214844 121.503906 225.289062 122.113281 226.351562 122.746094 C 227.410156 123.382812 228.453125 124.042969 229.480469 124.730469 C 230.511719 125.417969 231.519531 126.128906 232.511719 126.863281 C 233.503906 127.601562 234.480469 128.359375 235.433594 129.144531 C 236.390625 129.929688 237.324219 130.734375 238.242188 131.566406 C 239.15625 132.394531 240.050781 133.246094 240.925781 134.121094 C 241.800781 134.996094 242.652344 135.890625 243.480469 136.804688 C 244.3125 137.722656 245.117188 138.65625 245.902344 139.613281 C 246.6875 140.566406 247.445312 141.542969 248.183594 142.535156 C 248.917969 143.527344 249.628906 144.539062 250.316406 145.566406 C 251.003906 146.59375 251.664062 147.636719 252.300781 148.695312 C 252.933594 149.757812 253.542969 150.832031 254.125 151.921875 C 254.710938 153.011719 255.265625 154.113281 255.792969 155.230469 C 256.320312 156.347656 256.824219 157.480469 257.296875 158.621094 C 257.769531 159.761719 258.214844 160.914062 258.628906 162.078125 C 259.046875 163.242188 259.433594 164.414062 259.792969 165.597656 C 260.152344 166.78125 260.480469 167.972656 260.78125 169.171875 C 261.082031 170.367188 261.351562 171.574219 261.59375 172.785156 C 261.832031 174 262.046875 175.214844 262.226562 176.4375 C 262.40625 177.660156 262.558594 178.886719 262.679688 180.117188 C 262.800781 181.347656 262.890625 182.578125 262.953125 183.8125 C 263.011719 185.046875 263.042969 186.28125 263.042969 187.519531 Z M 263.042969 187.519531 " fill-opacity="1" fill-rule="nonzero"/></g><g clip-path="url(#15c9412d1e)"><path fill="#ffbd59" d="M 263.042969 187.519531 C 263.042969 188.753906 263.011719 189.988281 262.953125 191.222656 C 262.890625 192.457031 262.800781 193.691406 262.679688 194.921875 C 262.558594 196.152344 262.40625 197.378906 262.226562 198.597656 C 262.046875 199.820312 261.832031 201.039062 261.59375 202.25 C 261.351562 203.464844 261.082031 204.667969 260.78125 205.867188 C 260.480469 207.066406 260.152344 208.257812 259.792969 209.441406 C 259.433594 210.621094 259.046875 211.796875 258.628906 212.960938 C 258.214844 214.125 257.769531 215.277344 257.296875 216.417969 C 256.824219 217.558594 256.320312 218.6875 255.792969 219.804688 C 255.265625 220.921875 254.710938 222.027344 254.125 223.117188 C 253.542969 224.207031 252.933594 225.28125 252.300781 226.34375 C 251.664062 227.402344 251.003906 228.445312 250.316406 229.472656 C 249.628906 230.5 248.917969 231.511719 248.183594 232.503906 C 247.445312 233.496094 246.6875 234.46875 245.902344 235.425781 C 245.117188 236.382812 244.3125 237.316406 243.480469 238.230469 C 242.652344 239.148438 241.800781 240.042969 240.925781 240.917969 C 240.050781 241.789062 239.15625 242.640625 238.242188 243.472656 C 237.324219 244.300781 236.390625 245.109375 235.433594 245.894531 C 234.480469 246.675781 233.503906 247.4375 232.511719 248.171875 C 231.519531 248.910156 230.511719 249.621094 229.480469 250.308594 C 228.453125 250.996094 227.410156 251.65625 226.351562 252.289062 C 225.289062 252.925781 224.214844 253.535156 223.125 254.117188 C 222.035156 254.699219 220.933594 255.257812 219.816406 255.785156 C 218.699219 256.3125 217.570312 256.8125 216.425781 257.285156 C 215.285156 257.757812 214.132812 258.203125 212.96875 258.621094 C 211.804688 259.035156 210.632812 259.425781 209.449219 259.78125 C 208.265625 260.140625 207.074219 260.472656 205.875 260.773438 C 204.679688 261.070312 203.472656 261.34375 202.261719 261.582031 C 201.046875 261.824219 199.832031 262.035156 198.609375 262.21875 C 197.386719 262.398438 196.160156 262.550781 194.929688 262.671875 C 193.699219 262.792969 192.46875 262.882812 191.234375 262.945312 C 190 263.003906 188.765625 263.035156 187.527344 263.035156 C 186.292969 263.035156 185.058594 263.003906 183.824219 262.945312 C 182.589844 262.882812 181.355469 262.792969 180.125 262.671875 C 178.894531 262.550781 177.671875 262.398438 176.449219 262.21875 C 175.226562 262.035156 174.007812 261.824219 172.796875 261.582031 C 171.582031 261.34375 170.378906 261.070312 169.179688 260.773438 C 167.980469 260.472656 166.789062 260.140625 165.605469 259.78125 C 164.425781 259.425781 163.25 259.035156 162.085938 258.621094 C 160.925781 258.203125 159.769531 257.757812 158.628906 257.285156 C 157.488281 256.8125 156.359375 256.3125 155.242188 255.785156 C 154.125 255.257812 153.019531 254.699219 151.929688 254.117188 C 150.839844 253.535156 149.765625 252.925781 148.707031 252.289062 C 147.644531 251.65625 146.601562 250.996094 145.574219 250.308594 C 144.546875 249.621094 143.535156 248.910156 142.542969 248.171875 C 141.550781 247.4375 140.578125 246.675781 139.621094 245.894531 C 138.667969 245.109375 137.730469 244.300781 136.816406 243.472656 C 135.898438 242.640625 135.003906 241.789062 134.128906 240.917969 C 133.257812 240.042969 132.40625 239.148438 131.574219 238.230469 C 130.746094 237.316406 129.9375 236.382812 129.152344 235.425781 C 128.371094 234.46875 127.609375 233.496094 126.875 232.503906 C 126.136719 231.511719 125.425781 230.5 124.738281 229.472656 C 124.050781 228.445312 123.390625 227.402344 122.757812 226.34375 C 122.121094 225.28125 121.511719 224.207031 120.929688 223.117188 C 120.347656 222.027344 119.792969 220.921875 119.261719 219.804688 C 118.734375 218.6875 118.234375 217.558594 117.761719 216.417969 C 117.289062 215.277344 116.84375 214.125 116.425781 212.960938 C 116.011719 211.796875 115.621094 210.621094 115.265625 209.441406 C 114.90625 208.257812 114.574219 207.066406 114.277344 205.867188 C 113.976562 204.667969 113.703125 203.464844 113.464844 202.25 C 113.222656 201.039062 113.011719 199.820312 112.828125 198.597656 C 112.648438 197.378906 112.496094 196.152344 112.375 194.921875 C 112.253906 193.691406 112.164062 192.457031 112.101562 191.222656 C 112.042969 189.988281 112.011719 188.753906 112.011719 187.519531 C 112.011719 186.28125 112.042969 185.046875 112.101562 183.8125 C 112.164062 182.578125 112.253906 181.347656 112.375 180.117188 C 112.496094 178.886719 112.648438 177.660156 112.828125 176.4375 C 113.011719 175.214844 113.222656 174 113.464844 172.785156 C 113.703125 171.574219 113.976562 170.367188 114.277344 169.171875 C 114.574219 167.972656 114.90625 166.78125 115.265625 165.597656 C 115.621094 164.414062 116.011719 163.242188 116.425781 162.078125 C 116.84375 160.914062 117.289062 159.761719 117.761719 158.621094 C 118.234375 157.480469 118.734375 156.347656 119.261719 155.230469 C 119.792969 154.113281 120.347656 153.011719 120.929688 151.921875 C 121.511719 150.832031 122.121094 149.757812 122.757812 148.695312 C 123.390625 147.636719 124.050781 146.59375 124.738281 145.566406 C 125.425781 144.539062 126.136719 143.527344 126.875 142.535156 C 127.609375 141.542969 128.371094 140.566406 129.152344 139.613281 C 129.9375 138.65625 130.746094 137.722656 131.574219 136.804688 C 132.40625 135.890625 133.257812 134.996094 134.128906 134.121094 C 135.003906 133.246094 135.898438 132.394531 136.816406 131.566406 C 137.730469 130.734375 138.667969 129.929688 139.621094 129.144531 C 140.578125 128.359375 141.550781 127.601562 142.542969 126.863281 C 143.535156 126.128906 144.546875 125.417969 145.574219 124.730469 C 146.601562 124.042969 147.644531 123.382812 148.707031 122.746094 C 149.765625 122.113281 150.839844 121.503906 151.929688 120.921875 C 153.019531 120.335938 154.125 119.78125 155.242188 119.253906 C 156.359375 118.726562 157.488281 118.226562 158.628906 117.75 C 159.769531 117.277344 160.925781 116.835938 162.085938 116.417969 C 163.25 116 164.425781 115.613281 165.605469 115.253906 C 166.789062 114.894531 167.980469 114.566406 169.179688 114.265625 C 170.378906 113.964844 171.582031 113.695312 172.796875 113.453125 C 174.007812 113.214844 175.226562 113.003906 176.449219 112.820312 C 177.671875 112.640625 178.894531 112.488281 180.125 112.367188 C 181.355469 112.246094 182.589844 112.15625 183.824219 112.09375 C 185.058594 112.035156 186.292969 112.003906 187.527344 112.003906 C 188.765625 112.003906 190 112.035156 191.234375 112.09375 C 192.46875 112.15625 193.699219 112.246094 194.929688 112.367188 C 196.160156 112.488281 197.386719 112.640625 198.609375 112.820312 C 199.832031 113.003906 201.046875 113.214844 202.261719 113.453125 C 203.472656 113.695312 204.679688 113.964844 205.875 114.265625 C 207.074219 114.566406 208.265625 114.894531 209.449219 115.253906 C 210.632812 115.613281 211.804688 116 212.96875 116.417969 C 214.132812 116.835938 215.285156 117.277344 216.425781 117.75 C 217.570312 118.226562 218.699219 118.726562 219.816406 119.253906 C 220.933594 119.78125 222.035156 120.335938 223.125 120.921875 C 224.214844 121.503906 225.289062 122.113281 226.351562 122.746094 C 227.410156 123.382812 228.453125 124.042969 229.480469 124.730469 C 230.511719 125.417969 231.519531 126.128906 232.511719 126.863281 C 233.503906 127.601562 234.480469 128.359375 235.433594 129.144531 C 236.390625 129.929688 237.324219 130.734375 238.242188 131.566406 C 239.15625 132.394531 240.050781 133.246094 240.925781 134.121094 C 241.800781 134.996094 242.652344 135.890625 243.480469 136.804688 C 244.3125 137.722656 245.117188 138.65625 245.902344 139.613281 C 246.6875 140.566406 247.445312 141.542969 248.183594 142.535156 C 248.917969 143.527344 249.628906 144.539062 250.316406 145.566406 C 251.003906 146.59375 251.664062 147.636719 252.300781 148.695312 C 252.933594 149.757812 253.542969 150.832031 254.125 151.921875 C 254.710938 153.011719 255.265625 154.113281 255.792969 155.230469 C 256.320312 156.347656 256.824219 157.480469 257.296875 158.621094 C 257.769531 159.761719 258.214844 160.914062 258.628906 162.078125 C 259.046875 163.242188 259.433594 164.414062 259.792969 165.597656 C 260.152344 166.78125 260.480469 167.972656 260.78125 169.171875 C 261.082031 170.367188 261.351562 171.574219 261.59375 172.785156 C 261.832031 174 262.046875 175.214844 262.226562 176.4375 C 262.40625 177.660156 262.558594 178.886719 262.679688 180.117188 C 262.800781 181.347656 262.890625 182.578125 262.953125 183.8125 C 263.011719 185.046875 263.042969 186.28125 263.042969 187.519531 Z M 263.042969 187.519531 " fill-opacity="1" fill-rule="nonzero"/></g><g clip-path="url(#f210bf2a58)"><path fill="#ffde59" d="M 263.042969 187.519531 C 263.042969 188.753906 263.011719 189.988281 262.953125 191.222656 C 262.890625 192.457031 262.800781 193.691406 262.679688 194.921875 C 262.558594 196.152344 262.40625 197.378906 262.226562 198.597656 C 262.046875 199.820312 261.832031 201.039062 261.59375 202.25 C 261.351562 203.464844 261.082031 204.667969 260.78125 205.867188 C 260.480469 207.066406 260.152344 208.257812 259.792969 209.441406 C 259.433594 210.621094 259.046875 211.796875 258.628906 212.960938 C 258.214844 214.125 257.769531 215.277344 257.296875 216.417969 C 256.824219 217.558594 256.320312 218.6875 255.792969 219.804688 C 255.265625 220.921875 254.710938 222.027344 254.125 223.117188 C 253.542969 224.207031 252.933594 225.28125 252.300781 226.34375 C 251.664062 227.402344 251.003906 228.445312 250.316406 229.472656 C 249.628906 230.5 248.917969 231.511719 248.183594 232.503906 C 247.445312 233.496094 246.6875 234.46875 245.902344 235.425781 C 245.117188 236.382812 244.3125 237.316406 243.480469 238.230469 C 242.652344 239.148438 241.800781 240.042969 240.925781 240.917969 C 240.050781 241.789062 239.15625 242.640625 238.242188 243.472656 C 237.324219 244.300781 236.390625 245.109375 235.433594 245.894531 C 234.480469 246.675781 233.503906 247.4375 232.511719 248.171875 C 231.519531 248.910156 230.511719 249.621094 229.480469 250.308594 C 228.453125 250.996094 227.410156 251.65625 226.351562 252.289062 C 225.289062 252.925781 224.214844 253.535156 223.125 254.117188 C 222.035156 254.699219 220.933594 255.257812 219.816406 255.785156 C 218.699219 256.3125 217.570312 256.8125 216.425781 257.285156 C 215.285156 257.757812 214.132812 258.203125 212.96875 258.621094 C 211.804688 259.035156 210.632812 259.425781 209.449219 259.78125 C 208.265625 260.140625 207.074219 260.472656 205.875 260.773438 C 204.679688 261.070312 203.472656 261.34375 202.261719 261.582031 C 201.046875 261.824219 199.832031 262.035156 198.609375 262.21875 C 197.386719 262.398438 196.160156 262.550781 194.929688 262.671875 C 193.699219 262.792969 192.46875 262.882812 191.234375 262.945312 C 190 263.003906 188.765625 263.035156 187.527344 263.035156 C 186.292969 263.035156 185.058594 263.003906 183.824219 262.945312 C 182.589844 262.882812 181.355469 262.792969 180.125 262.671875 C 178.894531 262.550781 177.671875 262.398438 176.449219 262.21875 C 175.226562 262.035156 174.007812 261.824219 172.796875 261.582031 C 171.582031 261.34375 170.378906 261.070312 169.179688 260.773438 C 167.980469 260.472656 166.789062 260.140625 165.605469 259.78125 C 164.425781 259.425781 163.25 259.035156 162.085938 258.621094 C 160.925781 258.203125 159.769531 257.757812 158.628906 257.285156 C 157.488281 256.8125 156.359375 256.3125 155.242188 255.785156 C 154.125 255.257812 153.019531 254.699219 151.929688 254.117188 C 150.839844 253.535156 149.765625 252.925781 148.707031 252.289062 C 147.644531 251.65625 146.601562 250.996094 145.574219 250.308594 C 144.546875 249.621094 143.535156 248.910156 142.542969 248.171875 C 141.550781 247.4375 140.578125 246.675781 139.621094 245.894531 C 138.667969 245.109375 137.730469 244.300781 136.816406 243.472656 C 135.898438 242.640625 135.003906 241.789062 134.128906 240.917969 C 133.257812 240.042969 132.40625 239.148438 131.574219 238.230469 C 130.746094 237.316406 129.9375 236.382812 129.152344 235.425781 C 128.371094 234.46875 127.609375 233.496094 126.875 232.503906 C 126.136719 231.511719 125.425781 230.5 124.738281 229.472656 C 124.050781 228.445312 123.390625 227.402344 122.757812 226.34375 C 122.121094 225.28125 121.511719 224.207031 120.929688 223.117188 C 120.347656 222.027344 119.792969 220.921875 119.261719 219.804688 C 118.734375 218.6875 118.234375 217.558594 117.761719 216.417969 C 117.289062 215.277344 116.84375 214.125 116.425781 212.960938 C 116.011719 211.796875 115.621094 210.621094 115.265625 209.441406 C 114.90625 208.257812 114.574219 207.066406 114.277344 205.867188 C 113.976562 204.667969 113.703125 203.464844 113.464844 202.25 C 113.222656 201.039062 113.011719 199.820312 112.828125 198.597656 C 112.648438 197.378906 112.496094 196.152344 112.375 194.921875 C 112.253906 193.691406 112.164062 192.457031 112.101562 191.222656 C 112.042969 189.988281 112.011719 188.753906 112.011719 187.519531 C 112.011719 186.28125 112.042969 185.046875 112.101562 183.8125 C 112.164062 182.578125 112.253906 181.347656 112.375 180.117188 C 112.496094 178.886719 112.648438 177.660156 112.828125 176.4375 C 113.011719 175.214844 113.222656 174 113.464844 172.785156 C 113.703125 171.574219 113.976562 170.367188 114.277344 169.171875 C 114.574219 167.972656 114.90625 166.78125 115.265625 165.597656 C 115.621094 164.414062 116.011719 163.242188 116.425781 162.078125 C 116.84375 160.914062 117.289062 159.761719 117.761719 158.621094 C 118.234375 157.480469 118.734375 156.347656 119.261719 155.230469 C 119.792969 154.113281 120.347656 153.011719 120.929688 151.921875 C 121.511719 150.832031 122.121094 149.757812 122.757812 148.695312 C 123.390625 147.636719 124.050781 146.59375 124.738281 145.566406 C 125.425781 144.539062 126.136719 143.527344 126.875 142.535156 C 127.609375 141.542969 128.371094 140.566406 129.152344 139.613281 C 129.9375 138.65625 130.746094 137.722656 131.574219 136.804688 C 132.40625 135.890625 133.257812 134.996094 134.128906 134.121094 C 135.003906 133.246094 135.898438 132.394531 136.816406 131.566406 C 137.730469 130.734375 138.667969 129.929688 139.621094 129.144531 C 140.578125 128.359375 141.550781 127.601562 142.542969 126.863281 C 143.535156 126.128906 144.546875 125.417969 145.574219 124.730469 C 146.601562 124.042969 147.644531 123.382812 148.707031 122.746094 C 149.765625 122.113281 150.839844 121.503906 151.929688 120.921875 C 153.019531 120.335938 154.125 119.78125 155.242188 119.253906 C 156.359375 118.726562 157.488281 118.226562 158.628906 117.75 C 159.769531 117.277344 160.925781 116.835938 162.085938 116.417969 C 163.25 116 164.425781 115.613281 165.605469 115.253906 C 166.789062 114.894531 167.980469 114.566406 169.179688 114.265625 C 170.378906 113.964844 171.582031 113.695312 172.796875 113.453125 C 174.007812 113.214844 175.226562 113.003906 176.449219 112.820312 C 177.671875 112.640625 178.894531 112.488281 180.125 112.367188 C 181.355469 112.246094 182.589844 112.15625 183.824219 112.09375 C 185.058594 112.035156 186.292969 112.003906 187.527344 112.003906 C 188.765625 112.003906 190 112.035156 191.234375 112.09375 C 192.46875 112.15625 193.699219 112.246094 194.929688 112.367188 C 196.160156 112.488281 197.386719 112.640625 198.609375 112.820312 C 199.832031 113.003906 201.046875 113.214844 202.261719 113.453125 C 203.472656 113.695312 204.679688 113.964844 205.875 114.265625 C 207.074219 114.566406 208.265625 114.894531 209.449219 115.253906 C 210.632812 115.613281 211.804688 116 212.96875 116.417969 C 214.132812 116.835938 215.285156 117.277344 216.425781 117.75 C 217.570312 118.226562 218.699219 118.726562 219.816406 119.253906 C 220.933594 119.78125 222.035156 120.335938 223.125 120.921875 C 224.214844 121.503906 225.289062 122.113281 226.351562 122.746094 C 227.410156 123.382812 228.453125 124.042969 229.480469 124.730469 C 230.511719 125.417969 231.519531 126.128906 232.511719 126.863281 C 233.503906 127.601562 234.480469 128.359375 235.433594 129.144531 C 236.390625 129.929688 237.324219 130.734375 238.242188 131.566406 C 239.15625 132.394531 240.050781 133.246094 240.925781 134.121094 C 241.800781 134.996094 242.652344 135.890625 243.480469 136.804688 C 244.3125 137.722656 245.117188 138.65625 245.902344 139.613281 C 246.6875 140.566406 247.445312 141.542969 248.183594 142.535156 C 248.917969 143.527344 249.628906 144.539062 250.316406 145.566406 C 251.003906 146.59375 251.664062 147.636719 252.300781 148.695312 C 252.933594 149.757812 253.542969 150.832031 254.125 151.921875 C 254.710938 153.011719 255.265625 154.113281 255.792969 155.230469 C 256.320312 156.347656 256.824219 157.480469 257.296875 158.621094 C 257.769531 159.761719 258.214844 160.914062 258.628906 162.078125 C 259.046875 163.242188 259.433594 164.414062 259.792969 165.597656 C 260.152344 166.78125 260.480469 167.972656 260.78125 169.171875 C 261.082031 170.367188 261.351562 171.574219 261.59375 172.785156 C 261.832031 174 262.046875 175.214844 262.226562 176.4375 C 262.40625 177.660156 262.558594 178.886719 262.679688 180.117188 C 262.800781 181.347656 262.890625 182.578125 262.953125 183.8125 C 263.011719 185.046875 263.042969 186.28125 263.042969 187.519531 Z M 263.042969 187.519531 " fill-opacity="1" fill-rule="nonzero"/></g><g fill="#5e17eb" fill-opacity="0.302"><g transform="translate(109.427707, 224.064991)"><g><path d="M 19.359375 0 L 13.90625 -9.453125 L 10.96875 -9.453125 L 10.96875 0 L 2.9375 0 L 2.9375 -29.40625 L 15 -29.40625 C 17.375 -29.40625 19.414062 -28.960938 21.125 -28.078125 C 22.832031 -27.191406 24.15625 -26 25.09375 -24.5 C 26.03125 -23.007812 26.5 -21.328125 26.5 -19.453125 C 26.5 -17.679688 26.085938 -16.070312 25.265625 -14.625 C 24.441406 -13.1875 23.269531 -12.019531 21.75 -11.125 L 28.1875 0 Z M 10.96875 -22.59375 L 10.96875 -16.25 L 14.703125 -16.25 C 16.429688 -16.25 17.617188 -16.539062 18.265625 -17.125 C 18.910156 -17.71875 19.234375 -18.492188 19.234375 -19.453125 C 19.234375 -20.367188 18.910156 -21.117188 18.265625 -21.703125 C 17.617188 -22.296875 16.429688 -22.59375 14.703125 -22.59375 Z M 10.96875 -22.59375 "/></g></g></g><g fill="#5e17eb" fill-opacity="0.302"><g transform="translate(137.609697, 224.064991)"><g><path d="M 10.96875 -6.796875 L 24.90625 -6.796875 L 24.90625 0 L 2.9375 0 L 2.9375 -29.40625 L 24.1875 -29.40625 L 24.1875 -22.59375 L 10.96875 -22.59375 L 10.96875 -18.109375 L 22.890625 -18.109375 L 22.890625 -11.296875 L 10.96875 -11.296875 Z M 10.96875 -6.796875 "/></g></g></g><g fill="#5e17eb" fill-opacity="0.302"><g transform="translate(164.615692, 224.064991)"><g><path d="M 22.765625 -29.40625 L 31.796875 -29.40625 L 20.5 0 L 11.71875 0 L 0.421875 -29.40625 L 9.453125 -29.40625 L 16.09375 -10.75 Z M 22.765625 -29.40625 "/></g></g></g><g fill="#5e17eb" fill-opacity="0.302"><g transform="translate(196.829687, 224.064991)"><g><path d="M 11 -29.40625 L 11 0 L 2.9375 0 L 2.9375 -29.40625 Z M 11 -29.40625 "/></g></g></g><g fill="#5e17eb" fill-opacity="0.302"><g transform="translate(210.773682, 224.064991)"><g><path d="M 21.96875 -15.671875 C 23.675781 -14.992188 24.875 -14.003906 25.5625 -12.703125 C 26.25 -11.398438 26.59375 -10.078125 26.59375 -8.734375 C 26.59375 -7.023438 26.195312 -5.507812 25.40625 -4.1875 C 24.625 -2.875 23.410156 -1.847656 21.765625 -1.109375 C 20.128906 -0.367188 18.007812 0 15.40625 0 L 2.9375 0 L 2.9375 -29.40625 L 14.953125 -29.40625 C 18.117188 -29.40625 20.535156 -28.660156 22.203125 -27.171875 C 23.867188 -25.691406 24.703125 -23.734375 24.703125 -21.296875 C 24.703125 -20.453125 24.503906 -19.488281 24.109375 -18.40625 C 23.710938 -17.332031 23 -16.421875 21.96875 -15.671875 Z M 15 -22.59375 L 10.96875 -22.59375 L 10.96875 -18.5625 L 15 -18.5625 C 15.894531 -18.5625 16.554688 -18.753906 16.984375 -19.140625 C 17.421875 -19.535156 17.640625 -20.015625 17.640625 -20.578125 C 17.640625 -21.140625 17.421875 -21.613281 16.984375 -22 C 16.554688 -22.394531 15.894531 -22.59375 15 -22.59375 Z M 16.171875 -6.796875 C 17.203125 -6.796875 17.988281 -7.039062 18.53125 -7.53125 C 19.082031 -8.03125 19.359375 -8.613281 19.359375 -9.28125 C 19.359375 -9.976562 19.082031 -10.566406 18.53125 -11.046875 C 17.988281 -11.523438 17.203125 -11.765625 16.171875 -11.765625 L 10.96875 -11.765625 L 10.96875 -6.796875 Z M 16.171875 -6.796875 "/></g></g></g><g fill="#5e17eb" fill-opacity="0.302"><g transform="translate(238.619674, 224.064991)"><g><path d="M 10.96875 -6.796875 L 24.90625 -6.796875 L 24.90625 0 L 2.9375 0 L 2.9375 -29.40625 L 24.1875 -29.40625 L 24.1875 -22.59375 L 10.96875 -22.59375 L 10.96875 -18.109375 L 22.890625 -18.109375 L 22.890625 -11.296875 L 10.96875 -11.296875 Z M 10.96875 -6.796875 "/></g></g></g><g fill="#5e17eb" fill-opacity="0.502"><g transform="translate(109.427707, 220.757491)"><g><path d="M 19.359375 0 L 13.90625 -9.453125 L 10.96875 -9.453125 L 10.96875 0 L 2.9375 0 L 2.9375 -29.40625 L 15 -29.40625 C 17.375 -29.40625 19.414062 -28.960938 21.125 -28.078125 C 22.832031 -27.191406 24.15625 -26 25.09375 -24.5 C 26.03125 -23.007812 26.5 -21.328125 26.5 -19.453125 C 26.5 -17.679688 26.085938 -16.070312 25.265625 -14.625 C 24.441406 -13.1875 23.269531 -12.019531 21.75 -11.125 L 28.1875 0 Z M 10.96875 -22.59375 L 10.96875 -16.25 L 14.703125 -16.25 C 16.429688 -16.25 17.617188 -16.539062 18.265625 -17.125 C 18.910156 -17.71875 19.234375 -18.492188 19.234375 -19.453125 C 19.234375 -20.367188 18.910156 -21.117188 18.265625 -21.703125 C 17.617188 -22.296875 16.429688 -22.59375 14.703125 -22.59375 Z M 10.96875 -22.59375 "/></g></g></g><g fill="#5e17eb" fill-opacity="0.502"><g transform="translate(137.609697, 220.757491)"><g><path d="M 10.96875 -6.796875 L 24.90625 -6.796875 L 24.90625 0 L 2.9375 0 L 2.9375 -29.40625 L 24.1875 -29.40625 L 24.1875 -22.59375 L 10.96875 -22.59375 L 10.96875 -18.109375 L 22.890625 -18.109375 L 22.890625 -11.296875 L 10.96875 -11.296875 Z M 10.96875 -6.796875 "/></g></g></g><g fill="#5e17eb" fill-opacity="0.502"><g transform="translate(164.615692, 220.757491)"><g><path d="M 22.765625 -29.40625 L 31.796875 -29.40625 L 20.5 0 L 11.71875 0 L 0.421875 -29.40625 L 9.453125 -29.40625 L 16.09375 -10.75 Z M 22.765625 -29.40625 "/></g></g></g><g fill="#5e17eb" fill-opacity="0.502"><g transform="translate(196.829687, 220.757491)"><g><path d="M 11 -29.40625 L 11 0 L 2.9375 0 L 2.9375 -29.40625 Z M 11 -29.40625 "/></g></g></g><g fill="#5e17eb" fill-opacity="0.502"><g transform="translate(210.773682, 220.757491)"><g><path d="M 21.96875 -15.671875 C 23.675781 -14.992188 24.875 -14.003906 25.5625 -12.703125 C 26.25 -11.398438 26.59375 -10.078125 26.59375 -8.734375 C 26.59375 -7.023438 26.195312 -5.507812 25.40625 -4.1875 C 24.625 -2.875 23.410156 -1.847656 21.765625 -1.109375 C 20.128906 -0.367188 18.007812 0 15.40625 0 L 2.9375 0 L 2.9375 -29.40625 L 14.953125 -29.40625 C 18.117188 -29.40625 20.535156 -28.660156 22.203125 -27.171875 C 23.867188 -25.691406 24.703125 -23.734375 24.703125 -21.296875 C 24.703125 -20.453125 24.503906 -19.488281 24.109375 -18.40625 C 23.710938 -17.332031 23 -16.421875 21.96875 -15.671875 Z M 15 -22.59375 L 10.96875 -22.59375 L 10.96875 -18.5625 L 15 -18.5625 C 15.894531 -18.5625 16.554688 -18.753906 16.984375 -19.140625 C 17.421875 -19.535156 17.640625 -20.015625 17.640625 -20.578125 C 17.640625 -21.140625 17.421875 -21.613281 16.984375 -22 C 16.554688 -22.394531 15.894531 -22.59375 15 -22.59375 Z M 16.171875 -6.796875 C 17.203125 -6.796875 17.988281 -7.039062 18.53125 -7.53125 C 19.082031 -8.03125 19.359375 -8.613281 19.359375 -9.28125 C 19.359375 -9.976562 19.082031 -10.566406 18.53125 -11.046875 C 17.988281 -11.523438 17.203125 -11.765625 16.171875 -11.765625 L 10.96875 -11.765625 L 10.96875 -6.796875 Z M 16.171875 -6.796875 "/></g></g></g><g fill="#5e17eb" fill-opacity="0.502"><g transform="translate(238.619674, 220.757491)"><g><path d="M 10.96875 -6.796875 L 24.90625 -6.796875 L 24.90625 0 L 2.9375 0 L 2.9375 -29.40625 L 24.1875 -29.40625 L 24.1875 -22.59375 L 10.96875 -22.59375 L 10.96875 -18.109375 L 22.890625 -18.109375 L 22.890625 -11.296875 L 10.96875 -11.296875 Z M 10.96875 -6.796875 "/></g></g></g><g fill="#5e17eb" fill-opacity="1"><g transform="translate(109.427707, 217.449991)"><g><path d="M 19.359375 0 L 13.90625 -9.453125 L 10.96875 -9.453125 L 10.96875 0 L 2.9375 0 L 2.9375 -29.40625 L 15 -29.40625 C 17.375 -29.40625 19.414062 -28.960938 21.125 -28.078125 C 22.832031 -27.191406 24.15625 -26 25.09375 -24.5 C 26.03125 -23.007812 26.5 -21.328125 26.5 -19.453125 C 26.5 -17.679688 26.085938 -16.070312 25.265625 -14.625 C 24.441406 -13.1875 23.269531 -12.019531 21.75 -11.125 L 28.1875 0 Z M 10.96875 -22.59375 L 10.96875 -16.25 L 14.703125 -16.25 C 16.429688 -16.25 17.617188 -16.539062 18.265625 -17.125 C 18.910156 -17.71875 19.234375 -18.492188 19.234375 -19.453125 C 19.234375 -20.367188 18.910156 -21.117188 18.265625 -21.703125 C 17.617188 -22.296875 16.429688 -22.59375 14.703125 -22.59375 Z M 10.96875 -22.59375 "/></g></g></g><g fill="#5e17eb" fill-opacity="1"><g transform="translate(137.609697, 217.449991)"><g><path d="M 10.96875 -6.796875 L 24.90625 -6.796875 L 24.90625 0 L 2.9375 0 L 2.9375 -29.40625 L 24.1875 -29.40625 L 24.1875 -22.59375 L 10.96875 -22.59375 L 10.96875 -18.109375 L 22.890625 -18.109375 L 22.890625 -11.296875 L 10.96875 -11.296875 Z M 10.96875 -6.796875 "/></g></g></g><g fill="#5e17eb" fill-opacity="1"><g transform="translate(164.615692, 217.449991)"><g><path d="M 22.765625 -29.40625 L 31.796875 -29.40625 L 20.5 0 L 11.71875 0 L 0.421875 -29.40625 L 9.453125 -29.40625 L 16.09375 -10.75 Z M 22.765625 -29.40625 "/></g></g></g><g fill="#5e17eb" fill-opacity="1"><g transform="translate(196.829687, 217.449991)"><g><path d="M 11 -29.40625 L 11 0 L 2.9375 0 L 2.9375 -29.40625 Z M 11 -29.40625 "/></g></g></g><g fill="#5e17eb" fill-opacity="1"><g transform="translate(210.773682, 217.449991)"><g><path d="M 21.96875 -15.671875 C 23.675781 -14.992188 24.875 -14.003906 25.5625 -12.703125 C 26.25 -11.398438 26.59375 -10.078125 26.59375 -8.734375 C 26.59375 -7.023438 26.195312 -5.507812 25.40625 -4.1875 C 24.625 -2.875 23.410156 -1.847656 21.765625 -1.109375 C 20.128906 -0.367188 18.007812 0 15.40625 0 L 2.9375 0 L 2.9375 -29.40625 L 14.953125 -29.40625 C 18.117188 -29.40625 20.535156 -28.660156 22.203125 -27.171875 C 23.867188 -25.691406 24.703125 -23.734375 24.703125 -21.296875 C 24.703125 -20.453125 24.503906 -19.488281 24.109375 -18.40625 C 23.710938 -17.332031 23 -16.421875 21.96875 -15.671875 Z M 15 -22.59375 L 10.96875 -22.59375 L 10.96875 -18.5625 L 15 -18.5625 C 15.894531 -18.5625 16.554688 -18.753906 16.984375 -19.140625 C 17.421875 -19.535156 17.640625 -20.015625 17.640625 -20.578125 C 17.640625 -21.140625 17.421875 -21.613281 16.984375 -22 C 16.554688 -22.394531 15.894531 -22.59375 15 -22.59375 Z M 16.171875 -6.796875 C 17.203125 -6.796875 17.988281 -7.039062 18.53125 -7.53125 C 19.082031 -8.03125 19.359375 -8.613281 19.359375 -9.28125 C 19.359375 -9.976562 19.082031 -10.566406 18.53125 -11.046875 C 17.988281 -11.523438 17.203125 -11.765625 16.171875 -11.765625 L 10.96875 -11.765625 L 10.96875 -6.796875 Z M 16.171875 -6.796875 "/></g></g></g><g fill="#5e17eb" fill-opacity="1"><g transform="translate(238.619674, 217.449991)"><g><path d="M 10.96875 -6.796875 L 24.90625 -6.796875 L 24.90625 0 L 2.9375 0 L 2.9375 -29.40625 L 24.1875 -29.40625 L 24.1875 -22.59375 L 10.96875 -22.59375 L 10.96875 -18.109375 L 22.890625 -18.109375 L 22.890625 -11.296875 L 10.96875 -11.296875 Z M 10.96875 -6.796875 "/></g></g></g></svg>